<svg id="visual" viewBox="0 0 1920 540" width="1920" height="540" xmlns="http://www.w3.org/2000/svg" xmlns:xlink="http://www.w3.org/1999/xlink" version="1.1"><path d="M0 343L64 357.2C128 371.3 256 399.7 384 401.7C512 403.7 640 379.3 768 363.7C896 348 1024 341 1152 357.8C1280 374.7 1408 415.3 1536 434.8C1664 454.3 1792 452.7 1856 451.8L1920 451L1920 541L1856 541C1792 541 1664 541 1536 541C1408 541 1280 541 1152 541C1024 541 896 541 768 541C640 541 512 541 384 541C256 541 128 541 64 541L0 541Z" fill="#ffffff" stroke-linecap="round" stroke-linejoin="miter"></path></svg>