<svg id="visual" viewBox="0 0 1920 540" width="1920" height="540" xmlns="http://www.w3.org/2000/svg" xmlns:xlink="http://www.w3.org/1999/xlink" version="1.1"><path d="M0 125L64 137.8C128 150.7 256 176.3 384 168.8C512 161.3 640 120.7 768 121.8C896 123 1024 166 1152 192.8C1280 219.7 1408 230.3 1536 229C1664 227.7 1792 214.3 1856 207.7L1920 201L1920 0L1856 0C1792 0 1664 0 1536 0C1408 0 1280 0 1152 0C1024 0 896 0 768 0C640 0 512 0 384 0C256 0 128 0 64 0L0 0Z" fill="#ffffff" stroke-linecap="round" stroke-linejoin="miter"></path></svg>